<?xml version="1.0" encoding="UTF-8"?>
<svg id="_레이어_1" data-name="레이어_1" xmlns="http://www.w3.org/2000/svg" version="1.1" viewBox="0 0 639.08 333.79">
  <!-- Generator: Adobe Illustrator 30.2.1, SVG Export Plug-In . SVG Version: 2.1.1 Build 1)  -->
  <defs>
    <style>
      .st0 {
        fill: #ea613b;
      }

      .st1 {
        fill: #fff;
      }

      .st2 {
        fill: #eeb033;
      }

      .st3 {
        fill: #31221f;
      }

      .st4 {
        fill: #f9cd9c;
      }
    </style>
  </defs>
  <g>
    <path class="st1" d="M219.68,188.65c-1.41-2.03-2.82-4.11-4.15-6.27-2.46,1.84-5.51,2.94-8.82,2.94-8.17,0-14.79-6.62-14.79-14.79s6.62-14.79,14.79-14.79c.23,0,.45.02.68.03-.34-1.71-.74-3.38-1.27-5.01-3.57-10.97-8.92-18.93-9.97-20.43-2.43-2.15-27.72-23.36-73.91-21.44-4.13.17-8.21.53-12.12,1.05l-3.47.47-1.46-14.33-5.93,15.52-1.81.38c-20.92,4.41-32.72,16.29-34.36,18.03-.91,1.59-5.42,9.74-9,20.75-.54,1.65-.93,3.3-1.26,4.98.03,0,.06,0,.1,0,8.17,0,14.79,6.62,14.79,14.79s-6.62,14.79-14.79,14.79c-2.43,0-4.72-.6-6.75-1.64-1.64,3.55-3.82,7.31-6.76,11.33-11.26,15.35-9.53,39.45,3.33,54.58l6.22-3.81-.16-7.07c-.02-.96.42-1.88,1.18-2.47.34-.26.72-.42,1.12-.52-2.55-9.44-2.2-20.87,5.17-33.55,10.19-17.54,26.25-23.23,49.08-17.38,10.14,2.6,18.09,4.26,28.08,1.96,3.1-.71,6.27-1.64,9.34-2.53,7.7-2.25,15.68-4.57,24.21-4.17,11.84.56,21.84,3.59,29.72,9.02,7.29,5.02,12.55,12.23,15.2,20.86,2.68,8.7,2.49,16.65.87,23.57l1.12-.1c.83-.07,1.66.2,2.28.76.62.56.99,1.35,1,2.19.05,2.42.17,6.44.28,8.06.35.19.79.46,1.31.82,12.45-15.29,14.19-36.91,2.97-53.57-.68-1.01-1.37-2.01-2.06-3.01ZM85.54,129.49c-1.07.43-1.91,1.53-2.05,2.67-.16,1.33-1.29,2.31-2.6,2.31-.1,0-.2,0-.31-.02-1.44-.17-2.46-1.47-2.29-2.91.36-3.06,2.44-5.78,5.31-6.92,2.86-1.14,6.25-.61,8.62,1.36,1.11.93,1.26,2.58.34,3.69-.93,1.11-2.58,1.26-3.69.34-.89-.74-2.26-.95-3.33-.53ZM99.33,166.17c-.11.51-.31,1.21-.65,1.93,0,.26-.01.66-.16,1.1-.18.57-.55,1.07-1.07,1.46-.65.47-1.39.71-2.13.71s-1.53-.24-2.24-.72c-.94-.41-1.81-1.16-2.48-2.22-1.08-1.72-1.53-3.92-1.77-5.44-.49-3.05-.6-6.17-.34-9.28.29-3.47,1.36-5.6,3.18-6.35.42-.17.87-.28,1.32-.25.97-.19,1.98.05,2.9.69.84.59,3.38,2.37,3.73,14.02.04,1.22.04,2.82-.3,4.35ZM128.69,164.14c-.78,1.22-2.4,1.57-3.62.79-.62-.4-1.51-.49-2.38-.23-.86.25-1.56.81-1.87,1.48-.31.67-.27,1.56.1,2.38.37.82,1.02,1.44,1.73,1.65,1.39.41,2.18,1.87,1.77,3.25-.34,1.14-1.38,1.87-2.51,1.87-.25,0-.5-.03-.74-.11-2.17-.64-4-2.28-5.01-4.5-1.01-2.21-1.04-4.67-.1-6.73.94-2.06,2.82-3.64,5.16-4.32,2.34-.69,4.77-.38,6.68.85,1.22.78,1.57,2.4.79,3.62ZM165.26,163.78c-.24,1.27-.58,2.74-1.24,4.05-.29.58-.63,1.09-1.01,1.51-.07.27-.18.63-.41.98-.43.64-1.08,1.05-1.85,1.18-.18.03-.37.05-.55.05-1.26,0-2.46-.71-3.33-1.95-.73-.74-1.32-1.76-1.7-3-.48-1.57-.63-3.44-.49-5.86.19-3.13.75-6.15,1.65-8.98,1.39-4.34,3.51-5.04,5.05-4.85.46.05.9.2,1.3.43.71.23,1.51.73,2.22,1.77,1.65,2.41,1.77,7.35.38,14.66ZM173.43,132.39c-.1.01-.21.02-.31.02-1.31,0-2.44-.98-2.6-2.31-.13-1.15-.98-2.25-2.05-2.67-1.07-.43-2.44-.21-3.33.53-1.11.92-2.76.77-3.69-.34-.92-1.11-.77-2.76.34-3.69,2.37-1.97,5.76-2.51,8.62-1.36,2.86,1.15,4.95,3.86,5.31,6.93.17,1.44-.86,2.74-2.29,2.91Z"/>
    <path class="st1" d="M153.34,285.11l-.52-.09-2.92-.53c-1.28,4.17-4.44,11.45-10.95,11.5h-.05c-1.89,0-3.51-.77-4.69-2.22-2.38-2.95-2.29-8.48-1.82-12.5l-6.5,1.68c.59,3.32.98,8.24-1.06,11.02-.98,1.33-2.43,2.1-4.08,2.18-.94.04-1.84-.1-2.68-.4-.79-.28-1.52-.73-2.18-1.31-.13-.11-.28-.2-.4-.33-.42-.42-.78-.9-1.1-1.41-.61-.93-1.07-1.98-1.42-3.08-.67-2.1-.96-4.33-1.06-6.11l-1.25.04-.54.02-.54.02-3.29.12c.4,5.98,2.73,19.92,15.73,20.64l3,.17-2.16,19.9,7.31.32.31-19.02,2.76-.04c15.75-.22,20.46-14.3,21.76-20.27l-1.14-.21-.52-.09Z"/>
    <path class="st2" d="M48.85,274.44l-.07,4.47,10.2-1.22c.12-.01.24-.02.36-.02,1.09,0,2.12.6,2.65,1.57l3.3,6.03c3.74-2.69,10.73-6.86,19.41-8.24,4.77-.76,10.05-.69,15.59.96l1.86-.76,2.63-1.08,3.11-1.28,1.72-.71.61-.25.26-.11c.11-.04.22-.06.33-.09.87-.24,1.8-.11,2.54.41l2.45,1.71,1.3.91,2.89,2.02.86.6c.38-.24.82-.5,1.27-.78.89-.53,1.91-1.1,3.02-1.67.37-.19.75-.37,1.14-.56,4.84-2.29,10.89-4.06,14.83-1.26.36.26.69.49,1.03.74.43.3.86.61,1.26.9.75.54,1.44,1.04,2.08,1.51.27.19.51.37.76.56.59.43,1.12.82,1.59,1.17.12.09.26.19.37.27l.37-.31,1.46-1.2.47-.39,1.91-1.58c.25-.21.53-.36.83-.47.08-.03.17-.04.25-.07.17-.05.34-.11.51-.13.18-.02.36,0,.53.01.17.01.34.03.5.07.21.05.43.1.63.2l1.93.94,3.22,1.58,9,4.42,7-3.04c.34-.15.7-.23,1.06-.25,3.35-.15,7.75-.04,9.72,1.42.55.4,1.83,1.02,3.07,1.56l5.64-5.59c.27-.27.59-.48.94-.63.47-.2,4.76-1.9,10.3.48,1.77.76,3.5,1.23,4.87,1.52l.45-3.85c.02-.21.07-.41.13-.61.37-1.13.74-2.03,1.09-2.82,1.32-2.94,2.46-3.79,3.17-4.12-.68-1.12-1.33-2.53-1.77-4.27-.37-1.44-.75-3.03-.81-4.59-.08-2.25.53-4.45,3.01-6.1.09-.06.17-.11.26-.17-.2-.17-.41-.34-.61-.51-.67-.55-1.34-1.09-1.91-1.5-.34-.24-.61-.4-.85-.54-.14-.08-.28-.15-.4-.22-1.51-.8-2.44-1.7-2.69-3.98-.12-1.03-.21-3.66-.27-5.83l-.35.03-3.75.32-3.68.32-3.48.3c-1.06.09-2.1-.39-2.72-1.26-.19-.27-1.54-2.18-2.61-4.41l-8.48.26c-.49.02-.98-.09-1.43-.31-.09-.04-9.65-4.66-22.75-5.5-10.71-.69-18.68-4.63-22.35-6.81l-4.11,4.1c-.95.95-2.42,1.16-3.6.5l-5.74-3.18-2.68,2.68c-.6.6-1.42.93-2.28.88-3.39-.17-12.83-.56-15.75-.37-2.55.17-5.3-.32-7.14-.76l-3.65,4.92c-.55.74-1.41,1.19-2.33,1.22-3.18.1-10.85.2-13.47-1-1.19-.55-3.05-1.24-4.43-1.73l-4.88,5.14-2.28,2.94c-.07.09-.15.18-.23.27l-4.83,4.9c-.24.24-.51.42-.81.56-.67.34-1.45.43-2.19.21l-1.62-.47-2.64-.77.06,2.79.04,1.89c.02,1.08-.53,2.08-1.44,2.65l-6.46,3.95-1.11.68,3.57,4.09c.5.57.73,1.28.72,2,0,.61-.17,1.22-.54,1.75l-.95,1.34-3.06,4.28-1.29,1.81,3,1.94c.87.56,1.4,1.54,1.38,2.58ZM61.87,255.58c.39-1.17.88-2.3,1.41-3.37.56-1.12,1.16-2.13,1.78-2.99.53-.74,1.07-1.39,1.58-1.82,2.55-2.15,11.57-6.14,15.94-7.02,4.37-.88,30.79-5.16,30.79-5.16,0,0,33.08-2.47,48.49,1.91,13.28,3.78,28.99,7.29,35.5,13.13.9.81,1.61,1.66,2.13,2.56.08.15.2.29.27.44.47.97.92,1.93,1.32,2.89.36.87.68,1.72.96,2.56.39,1.18.69,2.32.88,3.41.24,1.38.28,2.67.09,3.84-.38,2.35-1.72,4.22-4.5,5.25-.63.23-1.43.42-2.3.6-2.14.42-4.92.69-8.16.79-3.35.11-7.17.05-11.14-.13-.02,0-.05,0-.07,0-3.02-.14-6.13-.35-9.21-.63-.98-.09-1.95-.18-2.91-.28-2.55-.26-5.04-.56-7.41-.9-1.28-.18-2.54-.37-3.74-.57-.21-.03-.45-.06-.66-.09-.2-.03-.42-.06-.62-.09-.21-.03-.42-.06-.64-.09-9.73-1.34-25.13-1.6-39-.94-.21,0-.4.02-.61.03-.2,0-.39.02-.59.03-4.19.22-8.21.51-11.86.89-3.05.32-5.81.69-8.22,1.12-.25.04-.5.09-.74.13-.22.04-.48.08-.69.12-1.75.35-3.36.67-4.84.96-1.37.27-2.62.52-3.78.74-3.9.75-6.77,1.23-9.04,1.34-2.3.11-4.01-.16-5.58-.9-.8-.38-1.47-.94-2.09-1.57-.98-1-1.78-2.24-2.35-3.65-.15-.36-.27-.74-.39-1.11-.44-1.33-.74-2.73-.88-4.1-.07-.65-.11-1.29-.12-1.91-.02-1.64.39-3.55,1.02-5.43Z"/>
    <path class="st4" d="M202.04,258.72c-.28-.84-.6-1.7-.96-2.56-.4-.96-.84-1.92-1.32-2.89-.07-.15-.19-.29-.27-.44-.52-.9-1.23-1.76-2.13-2.56-6.51-5.84-22.23-9.35-35.5-13.13-15.41-4.38-48.49-1.91-48.49-1.91,0,0-26.42,4.28-30.79,5.16-4.37.88-13.39,4.87-15.94,7.02-.51.43-1.04,1.08-1.58,1.82-.62.86-1.22,1.87-1.78,2.99-.53,1.07-1.02,2.2-1.41,3.37-.63,1.88-1.04,3.79-1.02,5.43,0,.62.05,1.26.12,1.91.15,1.37.44,2.77.88,4.1.12.38.24.75.39,1.11.58,1.4,1.37,2.64,2.35,3.65.62.63,1.3,1.19,2.09,1.57,1.57.75,3.28,1.01,5.58.9,2.27-.11,5.14-.59,9.04-1.34,1.17-.23,2.42-.47,3.78-.74,1.49-.3,3.09-.62,4.84-.96.22-.04.47-.08.69-.12.24-.04.5-.09.74-.13,2.41-.42,5.17-.8,8.22-1.12,3.65-.38,7.67-.68,11.86-.89.2-.01.39-.02.59-.03.21-.01.4-.02.61-.03,13.87-.66,29.27-.39,39,.94.22.03.43.06.64.09.21.03.42.06.62.09.21.03.46.06.66.09,1.2.2,2.46.39,3.74.57,2.38.34,4.87.64,7.41.9.97.1,1.94.19,2.91.28,3.08.28,6.19.49,9.21.63.02,0,.05,0,.07,0,3.97.18,7.79.24,11.14.13,3.24-.1,6.03-.36,8.16-.79.87-.17,1.67-.37,2.3-.6,2.78-1.03,4.11-2.89,4.5-5.25.19-1.17.14-2.47-.09-3.84-.19-1.09-.49-2.23-.88-3.41ZM178.79,262.28c2.96-2.3,5.49-5.24,7.32-8.5.74-1.32,2.42-1.79,3.74-1.05,1.32.74,1.79,2.42,1.05,3.74-.35.62-.75,1.21-1.14,1.81-2.06,3.16-4.63,6.03-7.6,8.34-.5.39-1.09.58-1.68.58-.82,0-1.63-.37-2.17-1.06-.26-.34-.41-.72-.49-1.11-.21-1,.12-2.08.98-2.75ZM160.01,261.32c2.34-4.92,5.26-9.55,8.69-13.78.96-1.18,2.69-1.36,3.86-.4,1.18.96,1.36,2.69.4,3.87-3.16,3.89-5.85,8.15-8,12.68-.47.99-1.46,1.57-2.48,1.57-.4,0-.8-.09-1.18-.27-1.37-.65-1.95-2.29-1.3-3.66ZM103.04,260.22c2.32-5.36,3.83-10.95,4.48-16.61.18-1.51,1.53-2.59,3.05-2.41,1.51.18,2.59,1.54,2.41,3.05-.72,6.19-2.37,12.3-4.9,18.15-.45,1.04-1.46,1.66-2.52,1.66-.36,0-.73-.07-1.09-.23-1.39-.6-2.03-2.22-1.43-3.61ZM80.21,257.61c3.58-3.33,6.78-7.06,9.53-11.11.85-1.25,2.56-1.59,3.82-.73,1.26.85,1.58,2.56.73,3.82-2.98,4.38-6.45,8.44-10.33,12.05-.53.49-1.2.74-1.87.74-.74,0-1.47-.3-2.01-.88-1.03-1.11-.97-2.85.14-3.88Z"/>
    <g>
      <path class="st0" d="M132.36,200.25c-1.58.5-2.14,2.41-2.46,4.04-.22,1.16-.45,2.32-.67,3.48-.82-1.45-1.65-2.9-2.47-4.36-.51-.9-1.13-1.89-2.13-2.14-1.59-.4-3.01,1.43-2.89,3.06.12,1.63,1.22,3.01,2.23,4.3,1.95,2.49,3.75,5.1,5.37,7.82,1.16-1.61,2.32-3.21,3.48-4.82,1.52-2.11,3.1-4.36,3.34-6.95.11-1.15-.08-2.37-.77-3.3-.68-.93-1.94-1.49-3.04-1.14Z"/>
      <path class="st0" d="M52.92,155.75s-.06,0-.1,0c-1.23,0-2.41.18-3.55.47-1.31.33-2.55.83-3.69,1.49-4.45,2.55-7.45,7.33-7.45,12.83,0,3.15,1,6.07,2.68,8.47.71,1.02,1.55,1.94,2.49,2.74.87.75,1.84,1.4,2.87,1.93,2.02,1.04,4.31,1.64,6.75,1.64,8.17,0,14.79-6.62,14.79-14.79s-6.62-14.79-14.79-14.79Z"/>
      <path class="st0" d="M214.68,158.1c-1.15-.74-2.41-1.33-3.74-1.73-1.13-.34-2.33-.53-3.55-.59-.23-.01-.45-.03-.68-.03-8.17,0-14.79,6.62-14.79,14.79s6.62,14.79,14.79,14.79c3.31,0,6.36-1.1,8.82-2.94.93-.69,1.78-1.48,2.52-2.36.82-.98,1.51-2.08,2.06-3.25.88-1.9,1.39-4,1.39-6.23,0-5.23-2.72-9.81-6.81-12.44Z"/>
    </g>
    <path class="st3" d="M218.08,282.59l.77-6.63c.45-1.28,1.06-2.66,1.44-3.26,1.37-.59,3.1-1.56,3.31-1.69.91-.52,1.51-1.45,1.55-2.49.04-1.04-.43-2.02-1.3-2.6-.04-.03-.47-.35-.99-1.05,24.75-21.51,28.23-50.7,28.61-54.99,7.88-44.1-6.64-91.71-37-121.32-19.88-19.39-55.64-40.03-113.12-28.25-25.18,5.16-46.94,19.4-68.48,44.79-15.5,18.27-23.92,42.99-25.76,75.58-1.45,25.82,5.14,51.54,18.55,72.43,3.89,6.06,8.6,10.46,14.01,13.12l-1.97,2.75c-.48.67-.67,1.51-.51,2.32.16.81.64,1.53,1.33,1.97l4.25,2.75-.09,6.25c-.01.87.35,1.71,1,2.29.65.58,1.52.86,2.38.75l11.6-1.39,4.03,7.37c.44.81,1.24,1.37,2.15,1.53.17.03.34.04.51.04.74,0,1.47-.27,2.03-.78.15-.14,15.66-13.85,33.1-8.03.36.12.74.16,1.11.14.61,9.38,4.89,22.99,18.13,25.47l-2.19,20.15,19.23.85.32-19.47c16.29-1.7,23.03-16.22,24.7-25.6l7.64,3.75c.8.39,1.72.41,2.54.06l7.76-3.37c2.26-.06,4.7.09,5.44.36,1.81,1.28,5.42,2.7,6.14,2.98,1.11.43,2.37.17,3.22-.67l6.54-6.48c.84-.2,2.74-.43,5.12.59,4.94,2.12,9.53,2.41,9.73,2.43,1.61.07,2.99-1.08,3.18-2.67ZM213.01,274.34c-.06.2-.11.4-.13.61l-.45,3.85c-1.37-.29-3.1-.76-4.87-1.52-5.54-2.38-9.83-.68-10.3-.48-.35.15-.67.36-.94.63l-5.64,5.59c-1.25-.54-2.53-1.16-3.07-1.56-1.98-1.46-6.37-1.57-9.72-1.42-.37.02-.73.1-1.06.25l-7,3.04-9-4.42-3.22-1.58-1.93-.94c-.2-.1-.42-.15-.63-.2-.17-.04-.33-.06-.5-.07-.18-.01-.36-.03-.53-.01-.18.02-.34.08-.51.13-.08.02-.17.03-.25.07-.29.12-.57.27-.83.47l-1.91,1.58-.47.39-1.46,1.2-.37.31c-.11-.08-.25-.19-.37-.27-.47-.34-1-.74-1.59-1.17-.25-.18-.49-.36-.76-.56-.65-.47-1.33-.97-2.08-1.51-.4-.29-.83-.6-1.26-.9-.34-.25-.67-.48-1.03-.74-3.93-2.79-9.99-1.02-14.83,1.26-.39.18-.77.37-1.14.56-1.11.57-2.13,1.14-3.02,1.67-.46.27-.89.54-1.27.78l-.86-.6-2.89-2.02-1.3-.91-2.45-1.71c-.75-.52-1.68-.65-2.54-.41-.11.03-.23.05-.33.09l-.26.11-.61.25-1.72.71-3.11,1.28-2.63,1.08-1.86.76c-5.54-1.65-10.82-1.72-15.59-.96-8.68,1.38-15.67,5.56-19.41,8.24l-3.3-6.03c-.53-.98-1.56-1.57-2.65-1.57-.12,0-.24,0-.36.02l-10.2,1.22.07-4.47c.01-1.04-.51-2.02-1.38-2.58l-3-1.94,1.29-1.81,3.06-4.28.95-1.34c.37-.52.54-1.14.54-1.75,0-.72-.23-1.43-.72-2l-3.57-4.09,1.11-.68,6.46-3.95c.92-.56,1.47-1.57,1.44-2.65l-.04-1.89-.06-2.79,2.64.77,1.62.47c.74.22,1.52.12,2.19-.21.29-.15.57-.32.81-.56l4.83-4.9c.08-.08.16-.17.23-.27l2.28-2.94,4.88-5.14c1.38.49,3.24,1.18,4.43,1.73,2.61,1.19,10.29,1.1,13.47,1,.92-.03,1.78-.48,2.33-1.22l3.65-4.92c1.84.44,4.59.93,7.14.76,2.92-.2,12.36.2,15.75.37.86.05,1.68-.28,2.28-.88l2.68-2.68,5.74,3.18c1.18.65,2.65.45,3.6-.5l4.11-4.1c3.66,2.18,11.64,6.12,22.35,6.81,13.09.84,22.65,5.45,22.75,5.5.44.22.94.33,1.43.31l8.48-.26c1.07,2.23,2.42,4.14,2.61,4.41.62.87,1.66,1.35,2.72,1.26l3.48-.3,3.68-.32,3.75-.32.35-.03c.06,2.17.16,4.81.27,5.83.26,2.27,1.18,3.18,2.69,3.98.12.06.26.14.4.22.24.14.51.29.85.54.57.41,1.24.95,1.91,1.5.21.17.41.34.61.51-.08.06-.17.11-.26.17-2.48,1.64-3.09,3.85-3.01,6.1.06,1.56.44,3.15.81,4.59.44,1.73,1.09,3.14,1.77,4.27-.71.33-1.85,1.18-3.17,4.12-.35.79-.72,1.7-1.09,2.82ZM130.17,324.74l-7.31-.32,2.16-19.9-3-.17c-13-.72-15.33-14.66-15.73-20.64l3.29-.12.54-.02.54-.02,1.25-.04c.1,1.77.38,4.01,1.06,6.11.35,1.09.81,2.14,1.42,3.08.33.51.69.99,1.1,1.41.13.13.27.22.4.33.66.58,1.39,1.02,2.18,1.31.84.3,1.74.45,2.68.4,1.66-.08,3.11-.85,4.08-2.18,2.04-2.77,1.65-7.7,1.06-11.02l6.5-1.68c-.47,4.02-.56,9.55,1.82,12.5,1.18,1.46,2.8,2.22,4.69,2.22h.05c6.51-.05,9.67-7.33,10.95-11.5l2.92.53.52.09.52.09,1.14.21c-1.29,5.97-6,20.05-21.76,20.27l-2.76.04-.31,19.02ZM121.73,204.34c-.12-1.63,1.3-3.47,2.89-3.06,1.01.26,1.62,1.24,2.13,2.14.82,1.45,1.65,2.91,2.47,4.36.22-1.16.45-2.32.67-3.48.32-1.63.87-3.55,2.46-4.04,1.1-.35,2.35.21,3.04,1.14.69.93.87,2.15.77,3.3-.24,2.59-1.82,4.84-3.34,6.95-1.16,1.61-2.32,3.21-3.48,4.82-1.63-2.71-3.42-5.33-5.37-7.82-1.01-1.29-2.11-2.66-2.23-4.3ZM45.58,157.71c1.14-.66,2.38-1.16,3.69-1.49,1.14-.29,2.32-.46,3.55-.47.33-1.68.72-3.34,1.26-4.98,3.58-11.01,8.09-19.16,9-20.75,1.64-1.74,13.44-13.62,34.36-18.03l1.81-.38,5.93-15.52,1.46,14.33,3.47-.47c3.92-.53,7.99-.88,12.12-1.05,46.19-1.92,71.48,19.29,73.91,21.44,1.05,1.5,6.4,9.46,9.97,20.43.53,1.63.93,3.3,1.27,5.01,1.23.06,2.42.25,3.55.59,1.34.4,2.59.99,3.74,1.73,4.09,2.63,6.81,7.21,6.81,12.44,0,2.23-.51,4.34-1.39,6.23-.55,1.17-1.23,2.27-2.06,3.25-.74.89-1.59,1.67-2.52,2.36,1.33,2.16,2.75,4.24,4.15,6.27.69,1,1.39,2,2.06,3.01,11.22,16.66,9.48,38.28-2.97,53.57-.52-.36-.96-.63-1.31-.82-.12-1.61-.23-5.64-.28-8.06-.02-.84-.38-1.63-1-2.19-.62-.56-1.45-.84-2.28-.76l-1.12.1c1.62-6.92,1.81-14.88-.87-23.57-2.66-8.63-7.92-15.84-15.2-20.86-7.88-5.43-17.88-8.46-29.72-9.02-8.53-.4-16.51,1.92-24.21,4.17-3.07.89-6.24,1.82-9.34,2.53-9.98,2.29-17.93.63-28.08-1.96-22.84-5.84-38.89-.15-49.08,17.38-7.37,12.68-7.72,24.11-5.17,33.55-.4.1-.78.26-1.12.52-.76.59-1.2,1.5-1.18,2.47l.16,7.07-6.22,3.81c-12.86-15.13-14.59-39.22-3.33-54.58,2.95-4.02,5.12-7.78,6.76-11.33-1.03-.53-2-1.18-2.87-1.93-.94-.81-1.78-1.73-2.49-2.74-1.68-2.4-2.68-5.32-2.68-8.47,0-5.49,3-10.28,7.45-12.83Z"/>
    <path class="st3" d="M121.18,175.22c.25.07.5.11.74.11,1.13,0,2.17-.74,2.51-1.87.41-1.39-.38-2.84-1.77-3.25-.71-.21-1.35-.82-1.73-1.65-.37-.82-.41-1.71-.1-2.38.31-.67,1.01-1.22,1.87-1.48.86-.25,1.75-.17,2.38.23,1.22.78,2.84.43,3.62-.79.78-1.22.43-2.84-.79-3.62-1.91-1.23-4.34-1.54-6.68-.85-2.33.68-4.21,2.26-5.16,4.32-.94,2.06-.91,4.52.1,6.73,1.01,2.21,2.83,3.85,5.01,4.5Z"/>
    <path class="st3" d="M91.67,147.35c-1.82.74-2.9,2.88-3.18,6.35-.26,3.11-.14,6.24.34,9.28.24,1.51.68,3.72,1.77,5.44.67,1.06,1.54,1.81,2.48,2.22.7.47,1.47.72,2.24.72s1.48-.23,2.13-.71c.53-.39.89-.88,1.07-1.46.14-.44.16-.84.16-1.1.34-.71.54-1.41.65-1.93.34-1.53.34-3.13.3-4.35-.35-11.65-2.9-13.44-3.73-14.02-.92-.65-1.94-.88-2.9-.69-.45-.03-.9.08-1.32.25Z"/>
    <path class="st3" d="M156.85,169.61c.86,1.24,2.06,1.95,3.33,1.95.18,0,.37-.01.55-.05.77-.13,1.43-.54,1.85-1.18.23-.35.35-.72.41-.98.38-.43.72-.94,1.01-1.51.66-1.32,1-2.79,1.24-4.05,1.4-7.32,1.27-12.25-.38-14.66-.71-1.04-1.51-1.55-2.22-1.77-.4-.23-.84-.38-1.3-.43-1.54-.19-3.65.52-5.05,4.85-.91,2.83-1.47,5.85-1.65,8.98-.15,2.42,0,4.28.49,5.86.38,1.24.97,2.26,1.7,3Z"/>
    <path class="st3" d="M89.74,246.5c-2.75,4.04-5.95,7.78-9.53,11.11-1.11,1.03-1.17,2.77-.14,3.88.54.58,1.28.88,2.01.88.67,0,1.34-.24,1.87-.74,3.88-3.61,7.36-7.66,10.33-12.05.85-1.26.53-2.96-.73-3.82-1.26-.86-2.96-.53-3.82.73Z"/>
    <path class="st3" d="M168.7,247.54c-3.43,4.23-6.35,8.86-8.69,13.78-.65,1.37-.07,3.01,1.3,3.66.38.18.78.27,1.18.27,1.03,0,2.01-.58,2.48-1.57,2.15-4.52,4.84-8.79,8-12.68.96-1.18.78-2.91-.4-3.87-1.18-.96-2.91-.78-3.86.4Z"/>
    <path class="st3" d="M189.85,252.72c-1.32-.74-3-.27-3.74,1.05-1.83,3.26-4.36,6.21-7.32,8.5-.86.67-1.19,1.75-.98,2.75.08.39.23.77.49,1.11.54.7,1.35,1.06,2.17,1.06.59,0,1.18-.19,1.68-.58,2.97-2.31,5.54-5.18,7.6-8.34.39-.6.79-1.19,1.14-1.81.74-1.32.27-3-1.05-3.74Z"/>
    <path class="st3" d="M110.57,241.2c-1.52-.18-2.87.91-3.05,2.41-.66,5.66-2.17,11.25-4.48,16.61-.6,1.39.04,3.01,1.43,3.61.36.15.73.23,1.09.23,1.06,0,2.07-.62,2.52-1.66,2.53-5.85,4.18-11.96,4.9-18.15.18-1.51-.9-2.87-2.41-3.05Z"/>
    <path class="st3" d="M80.58,134.46c.1.01.21.02.31.02,1.31,0,2.44-.98,2.6-2.31.13-1.15.98-2.25,2.05-2.67,1.07-.43,2.44-.21,3.33.53,1.11.92,2.76.77,3.69-.34.92-1.11.77-2.76-.34-3.69-2.37-1.97-5.75-2.51-8.62-1.36-2.86,1.14-4.95,3.86-5.31,6.92-.17,1.44.86,2.74,2.29,2.91Z"/>
    <path class="st3" d="M165.14,127.95c.89-.74,2.26-.96,3.33-.53,1.07.43,1.91,1.53,2.05,2.67.16,1.33,1.29,2.31,2.6,2.31.1,0,.2,0,.31-.02,1.44-.17,2.46-1.47,2.29-2.91-.36-3.06-2.44-5.78-5.31-6.93-2.86-1.14-6.24-.61-8.62,1.36-1.11.92-1.26,2.58-.34,3.69.93,1.11,2.58,1.26,3.69.34Z"/>
  </g>
  <path class="st3" d="M239.23,68.89c.61.41,1.3.6,1.99.6,1.16,0,2.3-.56,2.99-1.6,1.1-1.65.65-3.88-1-4.98-6.33-4.22-13.5-9.28-18.33-15.94-4.91-6.78-6.69-14.66-4.74-21.08,2.12-7,8.94-12.79,17.38-14.76,7.16-1.66,15.65-.87,25.21,2.36,9.54,3.23,16.27,7.52,20.58,13.14,5,6.52,6.12,15.26,2.72,21.24-4.33,7.61-14.32,9.67-21.77,8.37-9.06-1.59-17.21-7.34-23.99-12.76-2.84-2.27-6.09-5.27-5.95-8.32.16-3.53,5.08-6.06,9.58-6.2,4.87-.13,9.74,1.26,13.75,3.99,3.41,2.31,6.03,6.59,4.5,9.28-.98,1.73-.37,3.92,1.35,4.9,1.72.98,3.92.37,4.9-1.35,3.78-6.67-.64-14.65-6.72-18.77-5.26-3.57-11.66-5.44-18.01-5.22-7.75.24-16.17,4.91-16.53,13.06-.28,6.28,4.48,10.91,8.65,14.25,7.49,5.98,16.58,12.35,27.24,14.22,12.04,2.11,24.08-2.78,29.26-11.89,4.87-8.56,3.55-20.28-3.26-29.17-5.2-6.78-13.05-11.88-23.97-15.57-10.84-3.67-20.65-4.53-29.14-2.55-10.89,2.53-19.77,10.25-22.63,19.67-2.59,8.56-.42,18.79,5.8,27.38,5.53,7.63,13.31,13.14,20.16,17.71Z"/>
  <polygon class="st3" points="303.46 164.75 348.7 164.75 348.7 183.99 289.12 183.99 289.12 193.61 443.02 193.61 443.02 183.99 383.85 183.99 383.85 164.75 429.69 164.75 429.69 154.96 337.39 154.96 337.39 120.29 428.68 120.29 428.68 110.5 339.74 110.5 303.46 110.5 296.52 110.5 296.52 115.46 303.46 115.46 303.46 164.75"/>
  <path class="st3" d="M463.42,217.25c0,8.54,6.93,15.47,15.47,15.47h84.5v-117.02h-31.79v4.97h5.74v42.75h-11.71v-47.71h-30.81v4.97h5.97v42.75h-11.51v-47.71h-31.25v4.97h5.4v96.58ZM525.63,173.04h11.71v50.06h-11.71v-50.06ZM489.27,173.04h11.51v50.06h-5.99c-3.05,0-5.52-2.47-5.52-5.52v-44.54Z"/>
  <polygon class="st3" points="618.61 254 618.61 249.03 612.16 249.03 612.16 178.68 632.16 178.68 632.16 169.06 612.16 169.06 612.16 115.6 618.61 115.6 618.61 110.64 612.16 110.64 582.47 110.64 575.4 110.64 575.4 115.6 582.47 115.6 582.47 249.03 575.4 249.03 575.4 254 618.61 254"/>
  <path class="st3" d="M432.3,227.01c-2.78-.05-5.41,1.15-7.41,3.04-2.21,2.08-3.67,4.92-4.21,7.89-.13.74-.36,1.47-.8,2.08-.38.53-.85.99-1.37,1.39-2.01,1.55-4.67,2.14-7.1,2.39-.67.07-1.34.07-2.01.08h-71.41v-32.69h4.69v-4.97h-43.21v4.97h4.6v34.52c0,2.21.54,4.06,1.62,5.56,1.08,1.49,3.3,2.24,6.66,2.24h104.41c2.06.07,9.86.23,16.08-1.32,5.97-1.48,11.45-6.08,11.45-12.64,0-7.01-4.99-12.42-12-12.54Z"/>
  <path class="st3" d="M379,284.61c1.32,0,2.06-.74,2.06-2.06v-.41c0-1.32-.74-2.06-2.06-2.06h-18.43c-1.32,0-2.06.74-2.06,2.06v5.14c0,.12,0,.24.04.41l-.04.37v.41c0,1.32.74,2.06,2.06,2.06h6.75v2.59h-6.75c-1.32,0-2.06.74-2.06,2.06v.82c0,1.32.74,2.06,2.06,2.06h18.43c1.32,0,2.06-.74,2.06-2.06v-.82c0-1.32-.74-2.06-2.06-2.06h-6.75v-2.59h6.75c1.32,0,2.06-.74,2.06-2.06v-.41c0-1.32-.74-2.06-2.06-2.06h-15.55v-1.4h15.55Z"/>
  <path class="st3" d="M361.39,300.66h-.82c-1.32,0-2.06.74-2.06,2.06v5.51c0,1.32.74,2.06,2.06,2.06h18.43c1.32,0,2.06-.74,2.06-2.06v-.82c0-1.32-.74-2.06-2.06-2.06h-15.55v-2.63c0-1.32-.74-2.06-2.06-2.06Z"/>
  <path class="st3" d="M388.31,310.29h.99c1.28,0,2.02-.66,2.18-1.93l3.05-26.09c.16-1.36-.58-2.18-1.93-2.18h-4.53c-1.32,0-2.06.74-2.06,2.06v.82c0,1.32.74,2.06,2.06,2.06h.99l-2.67,23.08c-.16,1.36.58,2.18,1.93,2.18Z"/>
  <path class="st3" d="M396.95,310.29h.99c1.28,0,2.02-.66,2.18-1.93l3.04-26.09c.16-1.36-.58-2.18-1.93-2.18h-3.7c-1.32,0-2.06.74-2.06,2.06v.82c0,1.32.74,2.06,2.06,2.06h.16l-2.67,23.08c-.16,1.36.58,2.18,1.93,2.18Z"/>
  <path class="st3" d="M407.61,280.09h-.82c-1.32,0-2.06.74-2.06,2.06v26.09c0,1.32.74,2.06,2.06,2.06h.82c1.32,0,2.06-.74,2.06-2.06v-12.84c0,1.32.74,2.06,2.02,2.06s1.98-.74,1.98-2.06v-.82c0-1.32-.7-2.06-1.98-2.06s-2.02.74-2.02,2.06v-12.43c0-1.32-.74-2.06-2.06-2.06Z"/>
  <path class="st3" d="M418.81,305.68h18.43c1.14,0,2.06.92,2.06,2.06v.82c0,1.14-.92,2.06-2.06,2.06h-18.43c-1.14,0-2.06-.92-2.06-2.06v-.82c0-1.14.92-2.06,2.06-2.06Z"/>
  <path class="st3" d="M430.62,280.09h-1.19c-1.19,0-1.93.57-2.26,1.73-1.27,4.03-3.66,7.45-9.38,10.66-2.22,1.24-3.05,2.55-2.02,3.62l.91.95c.82.87,1.77,1.03,2.8.5,3-1.61,6.34-3.87,8.97-7.16,0,.33.16.7.45,1.07l3.91,5.23.04.04c.16.21.37.41.62.58,1.48,1.03,3.5.66,4.57-.82,1.07-1.52.66-3.5-.78-4.56l-.25-.17s-.16-.12-.41-.2l-6.34-2.02c-.45-.12-.82-.16-1.11-.12,1.4-1.98,2.55-4.28,3.29-6.99.37-1.44-.37-2.3-1.81-2.3Z"/>
  <path class="st3" d="M441.78,295.06c0,10.45,1.19,15.27,6.79,15.27,5.23,0,6.46-4.24,6.67-12.92.16.04.33.04.54.04h.95v10.78c0,1.32.74,2.06,2.06,2.06h.82c1.32,0,2.06-.74,2.06-2.06v-26.09c0-1.32-.74-2.06-2.06-2.06h-.82c-1.32,0-2.06.74-2.06,2.06v10.37h-.95c-.21,0-.37,0-.58.04-.16-8.52-1.52-12.43-6.62-12.43-5.6,0-6.79,4.73-6.79,14.94ZM448.57,284.65c1.4,0,1.73,3.87,1.73,10.41s-.33,10.74-1.73,10.74c-1.48,0-1.85-3.95-1.85-10.74s.37-10.41,1.85-10.41Z"/>
  <path class="st3" d="M464.94,280.09h.82c1.14,0,2.06.92,2.06,2.06v26.09c0,1.14-.92,2.06-2.06,2.06h-.82c-1.14,0-2.06-.92-2.06-2.06v-26.09c0-1.14.92-2.06,2.06-2.06Z"/>
  <path class="st3" d="M506.85,280.09h-.82c-1.32,0-2.06.74-2.06,2.06v26.09c0,1.32.74,2.06,2.06,2.06h.82c1.32,0,2.06-.74,2.06-2.06v-12.84c0,1.32.74,2.06,2.02,2.06s1.98-.74,1.98-2.06v-.82c0-1.32-.7-2.06-1.98-2.06s-2.02.74-2.02,2.06v-12.43c0-1.32-.74-2.06-2.06-2.06Z"/>
  <path class="st3" d="M484.79,280.09h-.08c-1.32,0-2.06.74-2.06,2.06v26.09c0,1.32.74,2.06,2.06,2.06h.08c.62,0,1.11-.16,1.48-.49h2.96c.37.33.86.49,1.48.49h.08c.62,0,1.11-.16,1.48-.49h2.96c.37.33.87.49,1.48.49h.08c1.32,0,2.06-.74,2.06-2.06v-26.09c0-1.32-.74-2.06-2.06-2.06h-.08c-1.32,0-2.06.74-2.06,2.06v3.7h-1.81v-3.7c0-1.32-.74-2.06-2.06-2.06h-.08c-1.32,0-2.06.74-2.06,2.06v3.7h-1.81v-3.7c0-1.32-.74-2.06-2.06-2.06ZM492.86,290.87h1.81v13.91h-1.81v-13.91ZM488.66,290.87v13.91h-1.81v-13.91h1.81Z"/>
  <path class="st3" d="M535.05,280.09h.83c1.13,0,2.06.92,2.06,2.06v26.09c0,1.14-.92,2.06-2.06,2.06h-.82c-1.14,0-2.06-.92-2.06-2.06v-26.09c0-1.13.92-2.06,2.06-2.06Z"/>
  <path class="st3" d="M526.65,284.78c1.32,0,2.06-.74,2.06-2.06v-.58c0-1.32-.74-2.06-2.06-2.06h-9.51c-1.32,0-2.06.74-2.06,2.06v.58c0,1.32.74,2.06,2.06,2.06h3.33c-.49,9.05-2.55,17.49-5.72,22.22-.49.7-.12,1.4,1.03,2.1l.95.58c1.15.7,2.22.45,2.8-.78.95-2.02,1.73-4.15,2.39-6.34l1.15,5.14.04.16c.04.17.08.37.16.58.54,1.4,2.1,2.1,3.54,1.48,1.4-.49,2.06-2.1,1.48-3.45-.12-.37-.33-.7-.53-.95l-.16-.21-3.83-4.56c-.37-.45-.78-.66-1.11-.74,1.36-5.18,2.06-10.61,2.39-15.22h1.6Z"/>
  <path class="st3" d="M552.3,285.02c1.32,0,2.06-.74,2.06-2.06v-.82c0-1.32-.74-2.06-2.06-2.06h-7.32c-1.32,0-2.06.7-2.06,2.06l-.04,25.84c0,1.48.86,2.14,2.26,1.81l8.76-1.98c1.19-.29,1.81-1.03,1.81-2.26v-.78c0-1.44-.86-2.14-2.26-1.85l-5.64,1.19v-19.09h4.48Z"/>
  <path class="st3" d="M561.51,280.09h-.82c-1.32,0-2.06.74-2.06,2.06v26.09c0,1.32.74,2.06,2.06,2.06h.82c1.32,0,2.06-.74,2.06-2.06v-12.84c0,1.32.74,2.06,2.02,2.06s1.97-.74,1.97-2.06v-.82c0-1.32-.7-2.06-1.97-2.06s-2.02.74-2.02,2.06v-12.43c0-1.32-.74-2.06-2.06-2.06Z"/>
</svg>