<?xml version="1.0" encoding="UTF-8"?>
<svg id="_레이어_1" data-name="레이어_1" xmlns="http://www.w3.org/2000/svg" version="1.1" viewBox="0 0 145.13 164.92">
  <!-- Generator: Adobe Illustrator 30.3.0, SVG Export Plug-In . SVG Version: 2.1.3 Build 182)  -->
  <defs>
    <style>
      .st0 {
        fill: #ea613b;
      }

      .st1 {
        fill: #fff;
      }

      .st2 {
        fill: #eeb033;
      }

      .st3 {
        fill: #31221f;
      }

      .st4 {
        fill: #f9cd9c;
      }
    </style>
  </defs>
  <g>
    <path class="st1" d="M107.12,93.41c-.71-1.02-1.42-2.07-2.09-3.16-1.24.93-2.77,1.48-4.44,1.48-4.11,0-7.44-3.33-7.44-7.44s3.33-7.44,7.44-7.44c.12,0,.23.01.34.02-.17-.86-.37-1.7-.64-2.52-1.8-5.52-4.49-9.53-5.02-10.29-1.22-1.08-13.96-11.76-37.21-10.8-2.08.09-4.13.27-6.1.53l-1.75.23-.74-7.21-2.98,7.81-.91.19c-10.53,2.22-16.47,8.2-17.3,9.08-.46.8-2.73,4.9-4.53,10.45-.27.83-.47,1.66-.63,2.51.02,0,.03,0,.05,0,4.11,0,7.44,3.33,7.44,7.44s-3.33,7.44-7.44,7.44c-1.23,0-2.38-.3-3.4-.83-.83,1.79-1.92,3.68-3.41,5.7-5.67,7.73-4.8,19.86,1.68,27.48l3.13-1.92-.08-3.56c-.01-.49.21-.95.6-1.24.17-.13.36-.21.56-.26-1.28-4.75-1.11-10.51,2.6-16.89,5.13-8.83,13.21-11.69,24.71-8.75,5.11,1.31,9.11,2.14,14.14.99,1.56-.36,3.16-.82,4.7-1.27,3.88-1.13,7.9-2.3,12.19-2.1,5.96.28,11,1.81,14.96,4.54,3.67,2.53,6.32,6.16,7.66,10.5,1.35,4.38,1.25,8.38.44,11.87l.57-.05c.42-.04.83.1,1.15.38.31.28.5.68.5,1.1.03,1.22.08,3.24.14,4.06.17.1.4.23.66.41,6.27-7.7,7.14-18.58,1.49-26.97-.34-.51-.69-1.01-1.04-1.51ZM39.58,63.63c-.54.22-.96.77-1.03,1.35-.08.67-.65,1.16-1.31,1.16-.05,0-.1,0-.16,0-.72-.08-1.24-.74-1.15-1.46.18-1.54,1.23-2.91,2.67-3.49,1.44-.58,3.14-.31,4.34.69.56.47.64,1.3.17,1.86-.47.56-1.3.64-1.86.17-.45-.37-1.14-.48-1.68-.26ZM46.52,82.09c-.06.26-.16.61-.33.97,0,.13,0,.33-.08.55-.09.29-.28.54-.54.73-.33.24-.7.36-1.07.36s-.77-.12-1.13-.36c-.47-.2-.91-.58-1.25-1.12-.54-.86-.77-1.98-.89-2.74-.24-1.53-.3-3.11-.17-4.67.15-1.75.68-2.82,1.6-3.2.21-.09.44-.14.67-.12.49-.1,1,.02,1.46.35.42.29,1.7,1.19,1.88,7.06.02.61.02,1.42-.15,2.19ZM61.31,81.07c-.39.61-1.21.79-1.82.4-.31-.2-.76-.24-1.2-.12-.44.13-.79.41-.94.74-.15.34-.14.79.05,1.2.19.41.51.72.87.83.7.21,1.1.94.89,1.64-.17.57-.69.94-1.26.94-.12,0-.25-.02-.37-.05-1.09-.32-2.01-1.15-2.52-2.26-.51-1.11-.53-2.35-.05-3.39.48-1.04,1.42-1.83,2.6-2.18,1.18-.35,2.4-.19,3.36.43.61.39.79,1.21.4,1.82ZM79.72,80.89c-.12.64-.29,1.38-.63,2.04-.15.29-.32.55-.51.76-.03.13-.09.32-.21.49-.21.32-.54.53-.93.59-.09.02-.19.02-.28.02-.64,0-1.24-.36-1.68-.98-.37-.37-.67-.89-.86-1.51-.24-.79-.32-1.73-.25-2.95.1-1.58.38-3.1.83-4.52.7-2.18,1.77-2.54,2.54-2.44.23.03.45.1.65.22.36.11.76.37,1.12.89.83,1.22.89,3.7.19,7.38ZM83.83,65.09c-.05,0-.1,0-.16,0-.66,0-1.23-.49-1.31-1.16-.07-.58-.49-1.13-1.03-1.35-.54-.22-1.23-.11-1.68.27-.56.47-1.39.39-1.86-.17-.47-.56-.39-1.39.17-1.86,1.19-.99,2.9-1.26,4.34-.69,1.44.58,2.49,1.94,2.67,3.49.09.72-.43,1.38-1.15,1.46Z"/>
    <path class="st1" d="M73.72,141.98l-.26-.05-1.47-.26c-.64,2.1-2.24,5.76-5.51,5.79h-.03c-.95,0-1.77-.39-2.36-1.12-1.2-1.48-1.15-4.27-.92-6.29l-3.27.85c.3,1.67.49,4.15-.53,5.55-.49.67-1.22,1.06-2.05,1.1-.47.02-.93-.05-1.35-.2-.4-.14-.76-.37-1.1-.66-.07-.06-.14-.1-.2-.17-.21-.21-.39-.45-.56-.71-.3-.47-.54-1-.71-1.55-.34-1.06-.48-2.18-.53-3.07l-.63.02h-.27s-.27.02-.27.02l-1.65.06c.2,3.01,1.37,10.03,7.92,10.39l1.51.08-1.09,10.02,3.68.16.16-9.58,1.39-.02c7.93-.11,10.3-7.2,10.95-10.2l-.57-.1-.26-.05Z"/>
    <path class="st2" d="M21.11,136.61l-.03,2.25,5.13-.62c.06,0,.12-.01.18-.01.55,0,1.07.3,1.33.79l1.66,3.04c1.88-1.35,5.4-3.45,9.77-4.15,2.4-.38,5.06-.35,7.85.48l.93-.38,1.32-.54,1.57-.64.87-.35.31-.13.13-.05c.05-.02.11-.03.17-.05.44-.12.9-.06,1.28.21l1.23.86.65.46,1.46,1.01.43.3c.19-.12.41-.25.64-.39.45-.27.96-.55,1.52-.84.19-.09.38-.19.57-.28,2.43-1.15,5.49-2.04,7.46-.64.18.13.35.25.52.37.21.15.43.31.63.45.38.27.72.52,1.05.76.13.1.26.19.38.28.3.22.56.41.8.59.06.04.13.1.19.14l.19-.15.73-.61.24-.19.96-.79c.13-.1.27-.18.42-.24.04-.02.08-.02.12-.03.09-.03.17-.06.26-.07.09-.01.18,0,.27,0,.09,0,.17.02.25.04.11.03.21.05.32.1l.97.48,1.62.79,4.53,2.22,3.52-1.53c.17-.07.35-.12.53-.12,1.69-.08,3.9-.02,4.9.72.27.2.92.51,1.55.79l2.84-2.81c.14-.13.3-.24.47-.32.24-.1,2.4-.96,5.19.24.89.38,1.76.62,2.45.76l.23-1.94c.01-.1.03-.21.07-.3.19-.57.37-1.02.55-1.42.66-1.48,1.24-1.91,1.6-2.07-.34-.56-.67-1.28-.89-2.15-.18-.73-.38-1.52-.41-2.31-.04-1.13.27-2.24,1.52-3.07.04-.03.09-.06.13-.09-.1-.09-.21-.17-.31-.25-.34-.28-.68-.55-.96-.75-.17-.12-.3-.2-.43-.27-.07-.04-.14-.08-.2-.11-.76-.4-1.23-.86-1.36-2-.06-.52-.11-1.84-.14-2.94l-.18.02-1.89.16-1.85.16-1.75.15c-.53.05-1.06-.19-1.37-.63-.1-.14-.77-1.1-1.31-2.22l-4.27.13c-.25,0-.5-.05-.72-.16-.05-.02-4.86-2.34-11.45-2.77-5.39-.35-9.41-2.33-11.25-3.43l-2.07,2.07c-.48.48-1.22.58-1.81.25l-2.89-1.6-1.35,1.35c-.3.3-.72.47-1.15.44-1.71-.08-6.46-.28-7.93-.18-1.29.08-2.67-.16-3.6-.38l-1.84,2.48c-.28.37-.71.6-1.18.61-1.6.05-5.46.1-6.78-.5-.6-.27-1.54-.62-2.23-.87l-2.46,2.59-1.15,1.48s-.08.09-.12.13l-2.43,2.47c-.12.12-.26.21-.41.28-.34.17-.73.22-1.1.11l-.81-.24-1.33-.39.03,1.4.02.95c.01.54-.27,1.05-.73,1.33l-3.25,1.99-.56.34,1.8,2.06c.25.29.37.65.36,1.01,0,.31-.08.61-.27.88l-.48.67-1.54,2.15-.65.91,1.51.97c.44.28.7.78.7,1.3ZM27.66,127.11c.2-.59.44-1.16.71-1.7.28-.56.58-1.07.9-1.5.27-.37.54-.7.79-.92,1.28-1.08,5.82-3.09,8.03-3.54,2.2-.44,15.5-2.6,15.5-2.6,0,0,16.65-1.24,24.41.96,6.69,1.9,14.6,3.67,17.88,6.61.45.41.81.84,1.07,1.29.04.07.1.14.14.22.24.49.46.97.66,1.45.18.44.34.87.49,1.29.2.59.35,1.17.44,1.72.12.69.14,1.34.05,1.94-.19,1.18-.87,2.12-2.26,2.64-.32.12-.72.21-1.16.3-1.08.21-2.48.34-4.11.4-1.69.05-3.61.03-5.61-.07-.01,0-.02,0-.04,0-1.52-.07-3.08-.18-4.64-.32-.49-.04-.98-.09-1.47-.14-1.28-.13-2.54-.28-3.73-.45-.64-.09-1.28-.19-1.88-.29-.1-.02-.23-.03-.33-.05-.1-.02-.21-.03-.31-.04-.11-.02-.21-.03-.32-.05-4.9-.67-12.65-.81-19.63-.48-.1,0-.2.01-.31.02-.1,0-.2.01-.3.02-2.11.11-4.13.26-5.97.45-1.53.16-2.92.35-4.14.56-.12.02-.25.04-.37.07-.11.02-.24.04-.35.06-.88.17-1.69.34-2.44.48-.69.14-1.32.26-1.91.37-1.96.38-3.41.62-4.55.67-1.16.06-2.02-.08-2.81-.46-.4-.19-.74-.47-1.05-.79-.5-.5-.89-1.13-1.19-1.84-.07-.18-.13-.37-.2-.56-.22-.67-.37-1.37-.44-2.07-.03-.33-.06-.65-.06-.96-.01-.83.19-1.79.51-2.73Z"/>
    <path class="st4" d="M98.24,128.69c-.14-.42-.3-.85-.49-1.29-.2-.48-.42-.97-.66-1.45-.04-.08-.09-.15-.14-.22-.26-.45-.62-.88-1.07-1.29-3.28-2.94-11.19-4.71-17.88-6.61-7.76-2.21-24.41-.96-24.41-.96,0,0-13.3,2.15-15.5,2.6-2.2.44-6.74,2.45-8.03,3.54-.26.22-.53.54-.79.92-.31.43-.61.94-.9,1.5-.27.54-.51,1.11-.71,1.7-.32.95-.53,1.91-.51,2.73,0,.31.03.63.06.96.07.69.22,1.4.44,2.07.06.19.12.38.2.56.29.71.69,1.33,1.19,1.84.31.32.65.6,1.05.79.79.38,1.65.51,2.81.46,1.15-.05,2.59-.29,4.55-.67.59-.11,1.22-.24,1.91-.37.75-.15,1.56-.31,2.44-.48.11-.02.24-.04.35-.06.12-.02.25-.04.37-.07,1.21-.21,2.6-.4,4.14-.56,1.84-.19,3.86-.34,5.97-.45.1,0,.2-.01.3-.02.1,0,.2-.01.31-.02,6.98-.33,14.73-.2,19.63.48.11.02.22.03.32.05.1.02.21.03.31.04.11.02.23.03.33.05.6.1,1.24.19,1.88.29,1.2.17,2.45.32,3.73.45.49.05.98.1,1.47.14,1.55.14,3.12.25,4.64.32.01,0,.02,0,.04,0,2,.09,3.92.12,5.61.07,1.63-.05,3.03-.18,4.11-.4.44-.09.84-.18,1.16-.3,1.4-.52,2.07-1.46,2.26-2.64.1-.59.07-1.24-.05-1.94-.09-.55-.24-1.12-.44-1.72ZM86.53,130.48c1.49-1.16,2.76-2.64,3.69-4.28.37-.67,1.22-.9,1.88-.53.67.37.9,1.22.53,1.88-.18.31-.38.61-.58.91-1.04,1.59-2.33,3.04-3.83,4.2-.25.2-.55.29-.85.29-.41,0-.82-.18-1.09-.53-.13-.17-.21-.36-.25-.56-.11-.5.06-1.05.49-1.38ZM77.08,130c1.18-2.48,2.65-4.81,4.38-6.94.48-.59,1.35-.68,1.95-.2.59.48.68,1.35.2,1.95-1.59,1.96-2.94,4.11-4.03,6.38-.24.5-.73.79-1.25.79-.2,0-.4-.04-.59-.13-.69-.33-.98-1.15-.66-1.84ZM48.39,129.45c1.17-2.7,1.93-5.51,2.26-8.36.09-.76.77-1.3,1.53-1.21.76.09,1.3.78,1.21,1.53-.36,3.12-1.19,6.19-2.47,9.14-.23.52-.74.83-1.27.83-.18,0-.37-.04-.55-.11-.7-.3-1.02-1.12-.72-1.82ZM36.9,128.13c1.8-1.68,3.42-3.56,4.8-5.59.43-.63,1.29-.8,1.92-.37.63.43.8,1.29.37,1.92-1.5,2.21-3.25,4.25-5.2,6.06-.27.25-.6.37-.94.37-.37,0-.74-.15-1.01-.44-.52-.56-.49-1.44.07-1.96Z"/>
    <g>
      <path class="st0" d="M63.15,99.25c-.8.25-1.08,1.21-1.24,2.04-.11.58-.23,1.17-.34,1.75-.42-.73-.83-1.46-1.24-2.19-.26-.45-.57-.95-1.07-1.08-.8-.2-1.52.72-1.45,1.54.06.82.62,1.51,1.12,2.16.98,1.25,1.89,2.57,2.71,3.94.58-.81,1.17-1.62,1.75-2.42.77-1.06,1.56-2.19,1.68-3.5.05-.58-.04-1.19-.39-1.66-.34-.47-.97-.75-1.53-.57Z"/>
      <path class="st0" d="M23.16,76.85s-.03,0-.05,0c-.62,0-1.21.09-1.79.24-.66.17-1.28.42-1.86.75-2.24,1.28-3.75,3.69-3.75,6.46,0,1.59.5,3.06,1.35,4.27.36.51.78.98,1.25,1.38.44.38.92.7,1.45.97,1.02.52,2.17.83,3.4.83,4.11,0,7.44-3.33,7.44-7.44s-3.33-7.44-7.44-7.44Z"/>
      <path class="st0" d="M104.6,78.03c-.58-.37-1.21-.67-1.89-.87-.57-.17-1.17-.27-1.79-.3-.11,0-.23-.02-.34-.02-4.11,0-7.44,3.33-7.44,7.44s3.33,7.44,7.44,7.44c1.67,0,3.2-.55,4.44-1.48.47-.35.89-.74,1.27-1.19.41-.49.76-1.05,1.04-1.64.44-.95.7-2.01.7-3.14,0-2.63-1.37-4.94-3.43-6.26Z"/>
    </g>
    <path class="st3" d="M106.31,140.71l.39-3.34c.22-.64.53-1.34.72-1.64.69-.3,1.56-.79,1.67-.85.46-.26.76-.73.78-1.25.02-.53-.22-1.02-.65-1.31-.02-.01-.24-.18-.5-.53,12.46-10.83,14.21-25.53,14.4-27.68,3.97-22.2-3.34-46.17-18.63-61.08-10.01-9.76-28.01-20.16-56.95-14.22-12.68,2.6-23.63,9.76-34.48,22.55C5.27,60.55,1.02,73,.1,89.41c-.73,13,2.59,25.95,9.34,36.46,1.96,3.05,4.33,5.26,7.05,6.6l-.99,1.39c-.24.34-.33.76-.26,1.17.08.41.32.77.67.99l2.14,1.38-.05,3.15c0,.44.18.86.5,1.15.33.29.77.43,1.2.38l5.84-.7,2.03,3.71c.22.41.62.69,1.08.77.09.01.17.02.25.02.37,0,.74-.14,1.02-.39.08-.07,7.88-6.97,16.66-4.04.18.06.37.08.56.07.3,4.72,2.46,11.58,9.13,12.82l-1.1,10.15,9.68.43.16-9.8c8.2-.86,11.59-8.17,12.43-12.89l3.84,1.89c.4.2.87.21,1.28.03l3.91-1.7c1.14-.03,2.37.05,2.74.18.91.64,2.73,1.36,3.09,1.5.56.22,1.2.08,1.62-.34l3.29-3.26c.42-.1,1.38-.22,2.58.3,2.49,1.07,4.8,1.22,4.9,1.22.81.03,1.51-.54,1.6-1.34ZM103.76,136.55c-.03.1-.06.2-.07.3l-.23,1.94c-.69-.14-1.56-.38-2.45-.76-2.79-1.2-4.95-.34-5.19-.24-.18.08-.34.18-.47.32l-2.84,2.81c-.63-.27-1.27-.58-1.55-.79-1-.73-3.21-.79-4.9-.72-.18,0-.37.05-.53.12l-3.52,1.53-4.53-2.22-1.62-.79-.97-.48c-.1-.05-.21-.08-.32-.1-.08-.02-.17-.03-.25-.04-.09,0-.18-.02-.27,0-.09,0-.17.04-.26.07-.04.01-.08.02-.12.03-.15.06-.29.13-.42.24l-.96.79-.24.19-.73.61-.19.15c-.05-.04-.13-.09-.19-.14-.24-.17-.5-.37-.8-.59-.12-.09-.25-.18-.38-.28-.33-.24-.67-.49-1.05-.76-.2-.14-.42-.3-.63-.45-.17-.12-.34-.24-.52-.37-1.98-1.41-5.03-.52-7.46.64-.2.09-.39.19-.57.28-.56.28-1.07.57-1.52.84-.23.14-.45.27-.64.39l-.43-.3-1.46-1.01-.65-.46-1.23-.86c-.38-.26-.84-.33-1.28-.21-.06.02-.11.02-.17.05l-.13.05-.31.13-.87.35-1.57.64-1.32.54-.93.38c-2.79-.83-5.45-.87-7.85-.48-4.37.7-7.89,2.8-9.77,4.15l-1.66-3.04c-.27-.49-.78-.79-1.33-.79-.06,0-.12,0-.18.01l-5.13.62.03-2.25c0-.52-.26-1.02-.7-1.3l-1.51-.97.65-.91,1.54-2.15.48-.67c.19-.26.27-.57.27-.88,0-.36-.11-.72-.36-1.01l-1.8-2.06.56-.34,3.25-1.99c.46-.28.74-.79.73-1.33l-.02-.95-.03-1.4,1.33.39.81.24c.37.11.77.06,1.1-.11.15-.07.29-.16.41-.28l2.43-2.47s.08-.09.12-.13l1.15-1.48,2.46-2.59c.7.25,1.63.6,2.23.87,1.32.6,5.18.55,6.78.5.47-.01.9-.24,1.18-.61l1.84-2.48c.93.22,2.31.47,3.6.38,1.47-.1,6.22.1,7.93.18.43.02.85-.14,1.15-.44l1.35-1.35,2.89,1.6c.59.33,1.33.22,1.81-.25l2.07-2.07c1.85,1.1,5.86,3.08,11.25,3.43,6.59.42,11.41,2.75,11.45,2.77.22.11.47.16.72.16l4.27-.13c.54,1.12,1.22,2.09,1.31,2.22.31.44.84.68,1.37.63l1.75-.15,1.85-.16,1.89-.16.18-.02c.03,1.09.08,2.42.14,2.94.13,1.15.59,1.6,1.36,2,.06.03.13.07.2.11.12.07.25.15.43.27.29.2.63.48.96.75.1.09.21.17.31.25-.04.03-.08.06-.13.09-1.25.83-1.56,1.94-1.52,3.07.03.79.22,1.59.41,2.31.22.87.55,1.58.89,2.15-.36.16-.93.6-1.6,2.07-.18.4-.36.85-.55,1.42ZM62.05,161.93l-3.68-.16,1.09-10.02-1.51-.08c-6.55-.36-7.72-7.38-7.92-10.39l1.65-.06h.27s.27-.02.27-.02l.63-.02c.05.89.19,2.02.53,3.07.18.55.41,1.08.71,1.55.17.26.35.5.56.71.06.06.14.11.2.17.33.29.7.52,1.1.66.42.15.88.23,1.35.2.83-.04,1.56-.43,2.05-1.1,1.03-1.4.83-3.88.53-5.55l3.27-.85c-.24,2.02-.28,4.81.92,6.29.59.73,1.41,1.12,2.36,1.12h.03c3.28-.03,4.87-3.69,5.51-5.79l1.47.26.26.05.26.05.57.1c-.65,3.01-3.02,10.09-10.95,10.2l-1.39.02-.16,9.58ZM57.8,101.31c-.06-.82.65-1.75,1.45-1.54.51.13.82.62,1.07,1.08.42.73.83,1.46,1.24,2.19.11-.58.23-1.17.34-1.75.16-.82.44-1.79,1.24-2.04.55-.17,1.18.11,1.53.57.35.47.44,1.08.39,1.66-.12,1.3-.92,2.44-1.68,3.5-.58.81-1.17,1.62-1.75,2.42-.82-1.37-1.72-2.68-2.71-3.94-.51-.65-1.06-1.34-1.12-2.16ZM19.46,77.83c.58-.33,1.2-.58,1.86-.75.57-.15,1.17-.23,1.79-.24.17-.85.36-1.68.63-2.51,1.8-5.54,4.07-9.64,4.53-10.45.82-.88,6.76-6.86,17.3-9.08l.91-.19,2.98-7.81.74,7.21,1.75-.23c1.97-.27,4.02-.44,6.1-.53,23.25-.97,35.99,9.71,37.21,10.8.53.75,3.22,4.76,5.02,10.29.27.82.47,1.66.64,2.52.62.03,1.22.13,1.79.3.67.2,1.31.5,1.89.87,2.06,1.32,3.43,3.63,3.43,6.26,0,1.12-.26,2.18-.7,3.14-.28.59-.62,1.14-1.04,1.64-.37.45-.8.84-1.27,1.19.67,1.09,1.38,2.13,2.09,3.16.35.5.7,1.01,1.04,1.51,5.65,8.39,4.77,19.27-1.49,26.97-.26-.18-.48-.32-.66-.41-.06-.81-.12-2.84-.14-4.06,0-.42-.19-.82-.5-1.1-.31-.28-.73-.42-1.15-.38l-.57.05c.81-3.49.91-7.49-.44-11.87-1.34-4.34-3.99-7.98-7.66-10.5-3.97-2.73-9-4.26-14.96-4.54-4.29-.2-8.31.97-12.19,2.1-1.54.45-3.14.92-4.7,1.27-5.03,1.15-9.03.32-14.14-.99-11.5-2.94-19.58-.08-24.71,8.75-3.71,6.38-3.88,12.14-2.6,16.89-.2.05-.39.13-.56.26-.38.3-.61.76-.6,1.24l.08,3.56-3.13,1.92c-6.48-7.62-7.35-19.75-1.68-27.48,1.48-2.02,2.58-3.92,3.41-5.7-.52-.27-1.01-.59-1.45-.97-.47-.41-.89-.87-1.25-1.38-.85-1.21-1.35-2.68-1.35-4.27,0-2.77,1.51-5.17,3.75-6.46Z"/>
    <path class="st3" d="M57.52,86.65c.13.04.25.05.37.05.57,0,1.09-.37,1.26-.94.21-.7-.19-1.43-.89-1.64-.36-.11-.68-.42-.87-.83-.19-.41-.21-.86-.05-1.2.16-.34.51-.62.94-.74.44-.13.88-.08,1.2.12.61.39,1.43.22,1.82-.4.39-.61.22-1.43-.4-1.82-.96-.62-2.19-.77-3.36-.43-1.18.34-2.12,1.14-2.6,2.18-.48,1.04-.46,2.27.05,3.39.51,1.12,1.43,1.94,2.52,2.26Z"/>
    <path class="st3" d="M42.67,72.62c-.92.37-1.46,1.45-1.6,3.2-.13,1.57-.07,3.14.17,4.67.12.76.34,1.87.89,2.74.34.53.78.91,1.25,1.12.35.24.74.36,1.13.36s.74-.12,1.07-.36c.27-.19.45-.44.54-.73.07-.22.08-.42.08-.55.17-.36.27-.71.33-.97.17-.77.17-1.57.15-2.19-.18-5.87-1.46-6.77-1.88-7.06-.46-.33-.98-.44-1.46-.35-.22-.02-.45.04-.67.12Z"/>
    <path class="st3" d="M75.48,83.82c.44.62,1.04.98,1.68.98.09,0,.19,0,.28-.02.39-.06.72-.27.93-.59.12-.18.18-.36.21-.49.19-.22.36-.47.51-.76.33-.66.5-1.4.63-2.04.7-3.68.64-6.17-.19-7.38-.36-.52-.76-.78-1.12-.89-.2-.12-.42-.19-.65-.22-.77-.09-1.84.26-2.54,2.44-.46,1.42-.74,2.95-.83,4.52-.07,1.22,0,2.16.25,2.95.19.62.49,1.14.86,1.51Z"/>
    <path class="st3" d="M41.69,122.54c-1.38,2.04-3,3.92-4.8,5.59-.56.52-.59,1.4-.07,1.96.27.29.64.44,1.01.44.34,0,.68-.12.94-.37,1.95-1.82,3.7-3.86,5.2-6.06.43-.63.26-1.49-.37-1.92-.63-.43-1.49-.26-1.92.37Z"/>
    <path class="st3" d="M81.45,123.06c-1.73,2.13-3.2,4.46-4.38,6.94-.33.69-.03,1.52.66,1.84.19.09.39.13.59.13.52,0,1.01-.29,1.25-.79,1.08-2.28,2.44-4.42,4.03-6.38.48-.59.39-1.46-.2-1.95-.59-.48-1.46-.39-1.95.2Z"/>
    <path class="st3" d="M92.1,125.67c-.67-.37-1.51-.14-1.88.53-.92,1.64-2.2,3.12-3.69,4.28-.43.34-.6.88-.49,1.38.04.2.12.39.25.56.27.35.68.53,1.09.53.3,0,.6-.1.85-.29,1.49-1.16,2.79-2.61,3.83-4.2.2-.3.4-.6.58-.91.37-.67.14-1.51-.53-1.88Z"/>
    <path class="st3" d="M52.18,119.87c-.76-.09-1.45.46-1.53,1.21-.33,2.85-1.09,5.66-2.26,8.36-.3.7.02,1.52.72,1.82.18.08.37.11.55.11.53,0,1.04-.31,1.27-.83,1.27-2.95,2.1-6.02,2.47-9.14.09-.76-.46-1.45-1.21-1.53Z"/>
    <path class="st3" d="M37.08,66.13c.05,0,.1,0,.16,0,.66,0,1.23-.49,1.31-1.16.07-.58.49-1.13,1.03-1.35.54-.21,1.23-.11,1.68.26.56.47,1.39.39,1.86-.17.47-.56.39-1.39-.17-1.86-1.19-.99-2.9-1.26-4.34-.69-1.44.58-2.49,1.94-2.67,3.49-.09.72.43,1.38,1.15,1.46Z"/>
    <path class="st3" d="M79.66,62.85c.45-.37,1.14-.48,1.68-.27.54.22.96.77,1.03,1.35.08.67.65,1.16,1.31,1.16.05,0,.1,0,.16,0,.72-.08,1.24-.74,1.15-1.46-.18-1.54-1.23-2.91-2.67-3.49-1.44-.58-3.14-.31-4.34.69-.56.47-.64,1.3-.17,1.86.47.56,1.3.64,1.86.17Z"/>
  </g>
  <path class="st3" d="M116.96,33.12c.31.21.66.3,1,.3.58,0,1.16-.28,1.51-.81.55-.83.33-1.95-.5-2.51-3.19-2.12-6.8-4.67-9.23-8.03-2.47-3.41-3.37-7.38-2.39-10.61,1.07-3.52,4.5-6.44,8.75-7.43,3.61-.84,7.88-.44,12.69,1.19,4.8,1.62,8.19,3.79,10.36,6.62,2.52,3.28,3.08,7.68,1.37,10.69-2.18,3.83-7.21,4.87-10.96,4.21-4.56-.8-8.67-3.7-12.08-6.42-1.43-1.14-3.07-2.65-3-4.19.08-1.78,2.56-3.05,4.82-3.12,2.45-.07,4.9.64,6.92,2.01,1.71,1.16,3.03,3.32,2.27,4.67-.49.87-.19,1.97.68,2.47.87.49,1.97.19,2.47-.68,1.9-3.36-.32-7.38-3.38-9.45-2.65-1.8-5.87-2.74-9.07-2.63-3.9.12-8.14,2.47-8.32,6.58-.14,3.16,2.25,5.49,4.35,7.17,3.77,3.01,8.35,6.22,13.71,7.16,6.06,1.06,12.12-1.4,14.73-5.99,2.45-4.31,1.79-10.21-1.64-14.68-2.62-3.42-6.57-5.98-12.07-7.84-5.46-1.85-10.4-2.28-14.67-1.29-5.48,1.28-9.95,5.16-11.39,9.9-1.31,4.31-.21,9.46,2.92,13.79,2.78,3.84,6.7,6.62,10.15,8.91Z"/>
</svg>